<?xml version="1.0" standalone="no"?>
<!DOCTYPE svg PUBLIC "-//W3C//DTD SVG 20010904//EN"
 "http://www.w3.org/TR/2001/REC-SVG-20010904/DTD/svg10.dtd">
<svg version="1.0" xmlns="http://www.w3.org/2000/svg"
 width="1024.000000pt" height="1024.000000pt" viewBox="0 0 1024.000000 1024.000000"
 preserveAspectRatio="xMidYMid meet">
<metadata>
Created by potrace 1.16, written by Peter Selinger 2001-2019
</metadata>
<g transform="translate(0.000000,1024.000000) scale(0.100000,-0.100000)"
fill="#000000" stroke="none">
<path d="M4195 8768 c-201 -13 -341 -28 -380 -39 -22 -6 -55 -13 -72 -16 -18
-3 -33 -9 -33 -14 0 -4 -22 -11 -50 -15 -27 -4 -50 -10 -50 -15 0 -5 -19 -9
-41 -9 -29 0 -57 -9 -91 -30 -26 -16 -55 -30 -64 -30 -9 0 -33 -9 -53 -19 -53
-28 -107 -51 -120 -51 -6 0 -11 -4 -11 -9 0 -5 -13 -12 -30 -16 -16 -4 -30
-11 -30 -16 0 -5 -9 -9 -19 -9 -11 0 -26 -7 -35 -15 -8 -8 -17 -15 -21 -15
-16 0 -112 -50 -125 -65 -7 -9 -26 -23 -41 -31 -15 -7 -30 -23 -34 -34 -3 -11
-12 -20 -19 -20 -7 0 -24 -10 -38 -22 -13 -13 -45 -41 -71 -63 -26 -22 -47
-44 -47 -50 0 -5 -15 -26 -33 -46 -18 -20 -41 -53 -51 -75 -10 -21 -23 -46
-27 -54 -59 -105 -83 -176 -100 -300 -14 -97 -8 -335 9 -352 7 -7 12 -32 12
-56 0 -44 35 -142 51 -142 5 0 9 -15 9 -34 0 -19 7 -42 16 -50 8 -9 18 -32 21
-51 3 -19 12 -40 19 -46 8 -6 14 -18 14 -25 0 -8 4 -14 9 -14 5 0 12 -13 16
-30 4 -16 11 -32 16 -35 5 -4 9 -15 9 -26 0 -11 6 -22 14 -25 8 -3 18 -19 21
-35 4 -16 11 -29 16 -29 5 0 11 -11 15 -25 3 -14 10 -25 15 -25 5 0 9 -5 9
-10 0 -12 41 -73 53 -78 4 -2 7 -9 7 -15 0 -7 14 -25 30 -41 16 -16 32 -37 35
-47 4 -11 11 -19 16 -19 5 0 9 -6 9 -13 0 -14 27 -40 53 -50 9 -3 17 -12 17
-18 0 -14 110 -128 124 -129 4 0 44 -36 88 -80 44 -44 86 -80 94 -80 18 0 144
-122 144 -139 0 -6 4 -11 9 -11 5 0 15 -16 21 -36 11 -34 10 -38 -13 -60 -15
-13 -38 -24 -53 -24 -35 0 -125 -60 -186 -124 -27 -28 -48 -53 -48 -57 0 -3
-9 -16 -20 -29 -11 -13 -20 -34 -20 -47 0 -12 -4 -23 -10 -23 -5 0 -13 -18
-16 -40 -4 -22 -10 -40 -15 -40 -5 0 -9 -7 -9 -16 0 -9 -10 -32 -22 -52 -21
-34 -21 -35 -3 -68 10 -18 21 -64 25 -101 14 -120 30 -208 40 -211 5 -2 12
-20 16 -40 4 -20 13 -46 20 -57 8 -11 14 -27 14 -36 0 -8 14 -28 30 -42 17
-15 30 -34 30 -42 0 -8 12 -18 27 -21 14 -4 37 -16 50 -28 13 -11 38 -25 56
-31 26 -8 33 -16 35 -42 2 -19 -1 -33 -7 -33 -18 0 -14 -191 4 -214 8 -11 15
-41 15 -67 0 -29 6 -51 15 -59 8 -7 15 -27 15 -45 0 -18 7 -38 15 -45 8 -7 15
-19 15 -26 0 -8 4 -14 9 -14 5 0 12 -22 16 -50 4 -27 11 -52 16 -56 5 -3 9
-16 9 -29 0 -13 7 -30 15 -39 8 -8 15 -30 15 -48 0 -18 7 -43 15 -55 8 -12 18
-43 21 -70 4 -26 10 -52 14 -58 4 -5 10 -22 14 -37 3 -16 11 -28 16 -28 5 0
12 -20 16 -45 3 -25 10 -45 14 -45 4 0 11 -25 15 -55 3 -30 10 -57 15 -60 4
-2 11 -29 15 -60 3 -30 11 -57 16 -60 5 -4 9 -17 9 -30 0 -13 6 -30 14 -38 8
-8 18 -53 25 -108 19 -170 32 -254 42 -257 5 -2 9 -25 9 -52 0 -30 6 -54 15
-64 8 -8 15 -26 15 -39 0 -19 -8 -28 -31 -36 -18 -6 -43 -11 -56 -11 -13 0
-31 -4 -41 -9 -9 -5 -69 -34 -132 -65 -123 -60 -139 -70 -179 -101 -63 -51
-101 -88 -101 -101 0 -8 -5 -14 -11 -14 -13 0 -139 -120 -139 -132 0 -5 -11
-19 -25 -32 -14 -13 -25 -27 -25 -31 0 -4 -9 -18 -20 -32 -44 -56 -92 -53 846
-53 l866 0 -6 53 c-7 50 -35 163 -51 200 -6 15 -1 17 36 19 82 2 95 5 314 66
109 31 142 45 317 134 184 95 457 264 563 350 90 71 248 236 319 331 92 122
185 328 211 465 8 42 20 81 26 86 8 8 10 2 5 -24 -3 -19 -9 -88 -12 -152 -7
-124 1 -181 51 -358 33 -118 91 -270 109 -289 12 -12 19 -12 28 -3 9 9 6 32
-10 99 -21 86 -22 123 -2 67 6 -16 15 -38 20 -49 5 -11 13 -42 18 -70 14 -76
89 -324 102 -340 16 -20 36 -19 44 1 10 27 -14 184 -39 258 -13 38 -22 73 -19
78 10 15 54 -25 72 -66 40 -89 77 -459 70 -700 l-4 -156 1003 0 1003 0 -2 168
c-3 163 -4 167 -25 170 -12 2 -27 10 -33 18 -7 8 -25 14 -41 14 -16 0 -29 4
-29 9 0 6 -20 13 -45 17 -25 3 -45 10 -45 15 0 4 -20 11 -45 15 -25 3 -45 10
-45 15 0 5 -17 17 -37 25 -21 9 -50 23 -64 30 -14 7 -44 16 -67 20 -23 4 -47
13 -53 20 -6 8 -19 14 -28 14 -9 0 -56 20 -104 45 -48 25 -96 45 -107 45 -10
0 -20 4 -22 8 -4 11 -240 112 -260 112 -9 0 -21 6 -27 13 -6 8 -37 22 -68 32
-32 9 -70 24 -85 31 -14 8 -32 14 -40 14 -7 0 -40 14 -72 30 -32 17 -69 30
-82 30 -13 0 -24 5 -24 10 0 6 -8 10 -19 10 -10 0 -30 9 -44 20 -14 11 -30 20
-36 20 -6 0 -19 4 -29 10 -24 13 -83 37 -108 45 -27 7 -114 91 -114 108 0 8
-12 28 -27 46 -16 17 -46 55 -68 83 -48 61 -142 158 -153 158 -5 0 -26 15 -48
33 -64 53 -112 87 -124 87 -6 0 -24 9 -39 21 -16 12 -44 24 -62 28 -29 6 -34
11 -34 36 0 25 7 33 54 56 29 15 56 31 60 37 7 11 106 69 134 78 9 4 17 12 17
18 0 7 14 25 30 41 17 16 30 32 30 37 0 12 61 66 82 73 9 3 27 22 38 41 12 19
36 51 53 72 18 21 40 54 49 73 31 64 48 107 48 123 0 8 7 41 15 73 8 31 15 81
15 110 0 29 14 114 30 188 39 175 39 229 0 309 -18 36 -43 69 -61 81 -27 18
-29 24 -24 55 26 152 33 872 9 888 -7 4 -14 59 -17 132 -6 118 -25 230 -47
275 -6 11 -14 47 -19 80 -12 77 -34 164 -49 192 -7 12 -12 33 -12 47 0 14 -6
40 -14 58 -7 18 -22 58 -31 88 -10 30 -22 59 -26 64 -5 6 -9 17 -9 25 -1 9 -9
34 -20 56 -11 22 -19 46 -20 53 0 6 -4 12 -10 12 -5 0 -10 9 -10 21 0 30 -54
142 -92 193 -18 23 -61 68 -95 100 -35 32 -63 63 -63 69 0 5 -11 25 -25 43
-14 18 -25 36 -25 39 0 8 -67 92 -95 120 -11 11 -43 49 -70 85 -27 36 -58 72
-70 80 -11 8 -50 45 -87 82 -37 37 -72 68 -77 68 -5 0 -23 12 -40 28 -60 54
-109 92 -118 92 -6 0 -16 7 -23 15 -7 8 -18 15 -26 15 -7 0 -25 11 -40 25 -15
14 -38 28 -51 31 -13 4 -23 10 -23 15 0 5 -5 9 -10 9 -10 0 -69 38 -80 51 -3
4 -16 10 -30 14 -13 4 -30 14 -38 21 -7 8 -22 14 -33 14 -10 0 -19 4 -19 9 0
5 -13 12 -30 16 -16 4 -30 11 -30 16 0 5 -5 9 -12 9 -9 0 -107 44 -180 81 -10
5 -23 9 -31 9 -7 0 -29 9 -50 20 -20 11 -55 20 -76 20 -22 0 -42 4 -45 8 -3 5
-43 12 -89 15 -47 4 -97 14 -113 22 -18 9 -57 15 -105 15 -49 0 -87 6 -105 15
-16 8 -50 15 -76 15 -26 0 -69 4 -95 10 -61 12 -347 17 -478 8z m384 -507 c10
-6 12 -20 8 -46 -12 -72 12 -86 43 -24 12 22 26 39 32 37 29 -10 51 -59 57
-128 7 -69 6 -73 -16 -83 -32 -14 -29 -27 7 -27 39 0 56 -28 82 -127 30 -119
34 -123 118 -119 39 2 74 6 77 10 3 3 -1 14 -9 23 -9 10 -23 33 -32 51 -9 18
-38 57 -64 87 -101 118 -133 167 -113 179 12 8 88 -49 102 -76 6 -13 29 -41
50 -63 57 -60 169 -186 193 -218 12 -16 78 -80 148 -143 71 -64 128 -120 128
-125 0 -12 -86 -12 -110 1 -11 6 -43 35 -72 66 -73 78 -89 84 -208 84 -98 0
-100 0 -100 -23 0 -13 7 -46 15 -73 8 -27 15 -55 15 -61 0 -17 -69 -17 -91 0
-21 16 -64 116 -123 287 -52 149 -70 195 -97 256 -11 22 -19 44 -19 48 0 4
-19 48 -42 98 -40 87 -41 91 -23 104 22 16 25 17 44 5z m514 -45 c40 -16 65
-33 77 -54 10 -16 40 -47 67 -68 26 -22 64 -56 83 -77 19 -21 105 -109 190
-195 85 -86 180 -186 211 -222 62 -71 87 -78 39 -12 -17 23 -55 93 -86 154
-30 62 -61 120 -69 128 -7 8 -30 49 -51 90 -20 41 -53 92 -71 113 -38 43 -41
57 -13 57 33 0 77 -27 104 -63 44 -58 388 -735 380 -748 -6 -10 -61 6 -81 23
-9 7 -44 48 -79 91 -58 72 -164 184 -377 396 -59 58 -90 82 -101 78 -26 -10
-19 -51 14 -82 17 -16 30 -33 30 -39 0 -11 86 -138 135 -201 51 -64 108 -163
100 -174 -10 -17 -50 -13 -77 8 -13 11 -38 46 -55 78 -17 32 -49 85 -71 117
-23 32 -48 82 -57 111 -8 29 -22 58 -30 65 -9 8 -28 34 -42 59 -15 25 -50 76
-80 113 -74 93 -70 111 13 62 24 -14 49 -24 56 -22 16 6 -69 68 -102 75 -15 3
-49 34 -82 73 -82 97 -78 108 25 66z m-902 2 c16 -14 72 -88 67 -89 -2 0 -16
-2 -33 -4 -51 -7 -75 -15 -75 -25 0 -13 76 -13 101 0 26 15 52 -1 80 -47 12
-21 39 -57 58 -79 46 -53 125 -162 141 -194 21 -41 115 -181 164 -244 25 -33
46 -63 46 -67 0 -3 -7 -12 -15 -19 -25 -21 -72 6 -109 64 -61 95 -116 185
-116 192 0 3 -21 34 -46 68 -26 33 -53 75 -60 92 -7 17 -21 37 -30 45 -10 8
-26 33 -36 56 -21 48 -37 55 -112 51 l-49 -3 -43 60 c-24 33 -43 67 -43 75 -1
8 8 30 19 48 21 35 62 44 91 20z m-304 -110 c41 -39 41 -48 4 -48 -17 0 -42
-11 -60 -26 -23 -19 -34 -23 -48 -15 -31 17 -85 79 -81 92 6 18 85 39 123 33
16 -2 44 -19 62 -36z m-251 -36 c29 -24 58 -77 51 -94 -3 -9 -25 -17 -54 -21
-63 -7 -134 -32 -145 -50 -7 -14 -116 -64 -121 -56 -2 2 -15 19 -30 37 -37 46
-34 59 15 79 23 9 63 28 88 41 174 94 164 91 196 64z m344 -48 c38 -33 35 -46
-16 -60 -43 -12 -61 -44 -25 -44 13 0 29 -12 39 -30 10 -16 31 -39 45 -51 15
-11 36 -37 46 -58 11 -20 44 -68 74 -106 29 -39 60 -81 67 -94 7 -13 39 -62
72 -109 55 -77 59 -85 44 -100 -13 -13 -19 -14 -38 -3 -28 16 -111 121 -158
201 -55 92 -102 158 -205 285 -52 65 -95 123 -95 130 0 9 85 58 112 63 3 1 20
-10 38 -24z m290 -44 c10 -5 21 -23 25 -38 3 -15 24 -57 45 -93 22 -35 40 -69
40 -75 0 -5 14 -32 31 -59 29 -46 129 -280 129 -303 0 -30 -106 -25 -117 6
-13 32 -95 142 -114 152 -10 6 -38 36 -61 67 -45 61 -121 149 -195 225 -48 49
-54 81 -17 86 24 3 114 -84 208 -202 31 -39 62 -74 70 -78 23 -13 28 8 11 44
-31 67 -104 201 -114 211 -17 17 -13 55 7 60 28 8 33 7 52 -3z m-659 -80 c10
-6 19 -17 19 -25 0 -8 15 -26 34 -40 43 -33 50 -52 31 -81 -22 -34 -41 -30
-74 17 -16 22 -47 54 -68 70 -21 17 -40 33 -43 36 -9 9 33 33 58 33 13 0 32
-5 43 -10z m-371 -184 l-22 -37 27 -27 c15 -15 34 -42 42 -59 7 -18 19 -33 25
-33 15 0 68 -50 69 -64 0 -6 17 -36 37 -66 43 -63 73 -74 110 -40 31 30 28 50
-18 95 -24 23 -40 48 -40 62 0 17 -6 23 -22 23 -12 0 -38 15 -58 33 -19 18
-55 42 -80 52 -58 24 -56 22 -35 45 25 28 46 25 81 -11 16 -17 46 -40 68 -51
21 -11 40 -28 43 -37 2 -10 19 -25 36 -33 18 -9 75 -56 127 -105 52 -49 111
-100 130 -113 58 -40 120 -94 120 -104 0 -16 -32 -46 -49 -46 -9 0 -40 27 -69
60 -35 39 -61 60 -75 60 -31 0 -126 -46 -133 -65 -11 -27 6 -65 47 -110 45
-49 46 -70 4 -81 -35 -9 -50 8 -113 117 -27 48 -82 133 -121 189 -39 57 -71
109 -71 116 0 7 -13 28 -29 46 -15 18 -38 54 -50 80 -11 26 -27 51 -35 55 -23
13 -58 81 -52 101 4 10 16 29 27 41 l22 23 40 -40 40 -40 -23 -36z m561 -47
c22 -33 69 -95 103 -137 169 -212 177 -223 165 -238 -33 -40 -86 5 -213 181
-44 61 -97 131 -118 156 -43 51 -44 56 -21 81 26 29 40 22 84 -43z m-831 -134
c7 -8 22 -15 34 -15 12 0 31 -7 43 -15 29 -21 105 -119 132 -172 23 -47 46
-63 87 -63 19 0 41 -14 75 -50 27 -27 55 -53 63 -57 23 -14 82 -106 94 -148
10 -33 9 -43 -6 -66 -25 -39 -93 -129 -97 -129 -20 0 -132 96 -340 290 -44 41
-99 91 -120 111 -22 20 -52 50 -66 65 -14 16 -38 37 -53 47 -34 23 -33 48 5
105 69 102 118 134 149 97z m2340 -491 c169 -36 521 -122 529 -130 2 -2 -10
-4 -27 -4 -17 0 -33 -4 -36 -9 -9 -14 74 -74 183 -131 l106 -55 6 -80 c7 -91
26 -175 43 -190 7 -5 22 -30 35 -55 12 -25 40 -66 62 -92 21 -26 39 -49 39
-52 0 -3 20 -26 45 -52 25 -25 48 -56 51 -69 3 -13 12 -26 19 -29 17 -6 123
-178 141 -228 22 -63 55 -256 52 -303 l-3 -44 -225 98 c-124 54 -238 105 -255
113 -47 25 -104 37 -177 39 -69 2 -77 6 -56 27 8 8 -7 29 -63 85 -41 40 -85
81 -98 90 -46 31 -14 28 96 -8 68 -22 136 -53 179 -80 38 -25 78 -45 89 -45
11 0 40 -9 64 -21 51 -22 70 -14 50 22 -7 13 -50 67 -96 119 -212 240 -323
281 -673 250 -147 -14 -451 -56 -544 -76 -39 -9 -90 -20 -113 -25 -58 -12
-116 -42 -146 -78 -13 -16 -27 -27 -31 -24 -10 10 -48 -29 -63 -64 -7 -18 -18
-33 -23 -33 -6 0 -10 -8 -10 -18 0 -21 38 -42 78 -42 15 0 33 -4 40 -9 8 -5
29 -3 50 4 20 7 50 15 66 19 25 6 27 5 13 -8 -8 -8 -25 -36 -37 -61 -12 -25
-25 -45 -30 -45 -4 0 -39 12 -76 26 -97 37 -217 37 -332 0 -44 -14 -86 -26
-93 -26 -6 0 5 20 25 44 20 24 40 56 46 70 5 14 15 25 22 24 7 -2 20 20 31 50
17 54 17 54 -5 95 l-23 42 -140 0 c-77 1 -145 4 -151 7 -6 4 -54 3 -107 -2
-83 -8 -152 -25 -219 -55 -33 -14 -22 43 16 86 19 21 39 55 44 76 5 21 17 72
27 113 28 118 111 305 175 393 65 91 276 234 402 274 46 14 122 39 170 55 78
26 140 37 373 61 113 13 322 -4 485 -39z m-765 -1343 l70 -17 -5 -40 c-3 -21
-5 -100 -5 -174 0 -120 4 -144 28 -218 15 -46 37 -100 47 -120 11 -20 20 -40
20 -45 0 -13 90 -137 126 -175 18 -19 38 -51 45 -71 6 -20 15 -40 19 -46 10
-14 21 -116 14 -141 -7 -25 -80 -74 -112 -74 -13 0 -48 11 -78 25 -76 35 -125
44 -224 45 -104 0 -185 -31 -196 -75 -3 -14 -4 -28 -1 -31 3 -3 27 4 54 14 26
11 66 23 88 26 64 8 240 -20 307 -48 30 -13 47 -14 83 -6 61 14 121 53 141 92
25 48 15 147 -20 192 -14 19 -26 37 -26 40 0 13 28 4 66 -22 23 -16 80 -39
128 -52 159 -42 290 -15 453 93 114 76 196 177 261 322 55 123 68 339 27 448
-11 26 47 22 120 -9 33 -13 89 -27 125 -31 36 -3 88 -17 115 -30 28 -12 58
-23 68 -23 11 0 40 -22 65 -48 30 -31 64 -55 95 -65 26 -9 68 -24 93 -33 43
-15 45 -18 39 -46 -9 -39 11 -361 32 -513 17 -126 30 -155 68 -155 35 0 75 37
75 69 0 31 46 121 61 121 13 0 10 -39 -6 -84 -9 -26 -12 -61 -8 -100 5 -56 3
-64 -26 -103 -16 -23 -54 -60 -83 -82 -29 -22 -59 -49 -66 -61 -28 -46 -70
-170 -82 -240 -27 -171 -66 -321 -142 -545 -34 -104 -93 -215 -155 -297 -65
-85 -300 -318 -363 -359 -333 -218 -557 -330 -808 -405 -62 -18 -117 -36 -121
-38 -20 -13 -163 -26 -343 -32 -286 -9 -396 14 -531 113 -96 71 -153 197 -178
394 -24 197 -92 473 -194 784 -18 55 -42 136 -55 180 -21 74 -63 202 -95 285
-42 112 -70 238 -70 325 l0 90 80 -3 c81 -3 169 14 229 44 16 7 30 14 31 14 2
0 4 -43 7 -95 2 -52 7 -97 10 -100 3 -4 15 -2 25 3 14 8 44 -3 137 -49 126
-62 190 -75 231 -46 21 16 12 37 -16 37 -26 0 -119 32 -205 70 -126 56 -119
48 -122 140 -3 95 17 149 87 235 23 28 53 70 68 93 16 24 43 67 61 95 19 28
45 85 60 126 24 67 27 93 29 221 1 80 2 150 3 156 0 26 63 57 123 60 33 2 62
6 64 8 10 10 95 3 158 -13z m2642 -533 c28 -26 53 -69 53 -93 0 -14 -3 -14
-25 1 -34 22 -126 14 -185 -16 -23 -12 -74 -53 -112 -91 -71 -71 -105 -88 -93
-46 18 59 124 211 168 240 64 42 152 44 194 5z m-92 -190 c28 -40 46 -124 47
-219 2 -77 5 -96 21 -112 18 -18 19 -25 7 -91 -25 -144 -72 -222 -243 -401
-127 -134 -186 -171 -245 -156 -21 6 -49 22 -62 36 -22 23 -23 29 -16 112 4
48 15 124 24 168 16 71 21 80 43 83 13 2 32 11 42 20 15 13 44 17 148 18 142
1 164 9 199 67 18 29 28 97 14 97 -15 0 -44 -22 -44 -34 0 -8 -8 -24 -19 -37
-17 -21 -27 -23 -115 -24 -88 0 -95 3 -45 18 13 4 19 24 24 75 4 39 4 80 0 92
-6 19 -4 21 17 15 26 -9 36 -23 58 -80 12 -32 21 -40 40 -40 49 0 36 84 -26
177 -66 97 -68 105 -41 133 30 33 128 104 144 105 6 0 19 -10 28 -22z"/>
<path d="M2970 7465 c0 -13 -11 -41 -25 -61 -32 -47 -32 -72 3 -116 26 -35
124 -118 139 -118 3 0 17 -10 30 -22 l23 -21 0 23 c0 13 -7 32 -17 42 -14 15
-14 24 -5 57 23 74 -1 124 -85 183 -24 16 -43 35 -43 43 0 8 -4 15 -10 15 -5
0 -10 -11 -10 -25z"/>
<path d="M3223 7177 c-13 -17 -30 -42 -39 -55 -15 -20 -15 -26 -3 -49 21 -40
126 -123 155 -123 20 0 29 9 44 43 38 83 17 141 -68 187 -30 16 -58 30 -61 30
-3 0 -16 -15 -28 -33z"/>
<path d="M4370 4219 c-30 -5 -104 -6 -165 -3 -123 6 -224 -11 -305 -51 -73
-37 -83 -54 -75 -125 7 -57 10 -62 41 -77 21 -11 39 -29 48 -52 8 -20 39 -67
68 -106 46 -61 63 -75 136 -112 60 -30 102 -44 148 -48 35 -4 67 -11 70 -16 7
-11 245 -11 304 1 85 17 115 27 112 38 -1 7 6 12 15 12 10 0 30 6 45 14 14 8
56 21 92 30 59 15 106 31 161 56 49 22 118 50 122 50 2 0 1 -4 -2 -10 -16 -27
12 -2 91 77 78 79 85 88 75 110 -7 16 -19 23 -37 23 -15 0 -79 20 -143 43 -64
24 -154 54 -201 67 -47 12 -110 31 -140 41 -128 42 -328 59 -460 38z m695
-235 c67 -5 93 -13 133 -40 6 -4 -78 -78 -102 -90 -11 -7 -61 -22 -110 -34
-72 -19 -95 -21 -119 -12 -25 9 -33 8 -57 -10 -15 -11 -49 -23 -74 -25 -26 -3
-49 -10 -52 -14 -3 -5 -19 -9 -35 -9 -17 0 -28 4 -24 10 3 5 12 7 19 4 8 -3
17 -1 20 5 12 20 -41 22 -100 5 -42 -12 -78 -15 -130 -11 -40 3 -103 1 -141
-3 -64 -8 -69 -7 -94 16 -29 28 -45 30 -57 8 -13 -24 -58 -10 -78 24 -9 15
-32 50 -50 78 -44 65 -45 89 -4 81 16 -4 32 -3 34 2 3 5 86 9 183 10 98 2 212
6 253 11 77 9 444 5 585 -6z"/>
</g>
</svg>
